<?xml version="1.0" encoding="UTF-8"?>
<svg xmlns="http://www.w3.org/2000/svg" xmlns:xlink="http://www.w3.org/1999/xlink" width="48pt" height="48pt" viewBox="0 0 48 48" version="1.2">
<defs>
<clipPath id="clip1">
  <path d="M 10.65625 0 L 37 0 L 37 47 L 10.65625 47 Z M 10.65625 0 "/>
</clipPath>
<clipPath id="clip2">
  <path d="M 10.65625 16 L 37 16 L 37 47 L 10.65625 47 Z M 10.65625 16 "/>
</clipPath>
</defs>
<g id="surface1">
<g clip-path="url(#clip1)" clip-rule="nonzero">
<path style=" stroke:none;fill-rule:evenodd;fill:rgb(40.779114%,70.588684%,90.589905%);fill-opacity:1;" d="M 26.78125 2.046875 C 26.78125 2.042969 26.78125 2.042969 26.777344 2.042969 C 26.230469 0.882812 25.074219 0.148438 23.804688 0.148438 C 22.535156 0.148438 21.375 0.882812 20.832031 2.042969 C 20.828125 2.042969 20.828125 2.042969 20.828125 2.046875 C 20.828125 2.046875 10.617188 24.015625 10.617188 33.414062 C 10.617188 40.753906 16.523438 46.714844 23.804688 46.714844 C 31.082031 46.714844 36.992188 40.753906 36.992188 33.414062 C 36.992188 24.015625 26.78125 2.046875 26.78125 2.046875 Z M 24.660156 3.058594 C 24.808594 3.375 34.644531 24.378906 34.644531 33.414062 C 34.644531 39.449219 29.789062 44.347656 23.804688 44.347656 C 17.820312 44.347656 12.964844 39.449219 12.964844 33.414062 C 12.964844 24.378906 22.800781 3.375 22.949219 3.058594 C 23.105469 2.726562 23.441406 2.515625 23.804688 2.515625 C 24.167969 2.515625 24.503906 2.726562 24.660156 3.058594 Z M 24.660156 3.058594 "/>
</g>
<path style=" stroke:none;fill-rule:evenodd;fill:rgb(40.779114%,70.588684%,90.589905%);fill-opacity:1;" d="M 19.1875 24.722656 C 17.445312 24.722656 16.035156 26.148438 16.035156 27.90625 C 16.035156 29.660156 17.445312 31.085938 19.1875 31.085938 C 20.925781 31.085938 22.339844 29.660156 22.339844 27.90625 C 22.339844 26.148438 20.925781 24.722656 19.1875 24.722656 Z M 19.1875 27.09375 C 19.628906 27.09375 19.992188 27.457031 19.992188 27.90625 C 19.992188 28.351562 19.628906 28.71875 19.1875 28.71875 C 18.742188 28.71875 18.382812 28.351562 18.382812 27.90625 C 18.382812 27.457031 18.742188 27.09375 19.1875 27.09375 Z M 19.1875 27.09375 "/>
<path style=" stroke:none;fill-rule:evenodd;fill:rgb(40.779114%,70.588684%,90.589905%);fill-opacity:1;" d="M 28.421875 34.042969 C 26.683594 34.042969 25.269531 35.464844 25.269531 37.21875 C 25.269531 38.976562 26.683594 40.402344 28.421875 40.402344 C 30.164062 40.402344 31.574219 38.976562 31.574219 37.21875 C 31.574219 35.464844 30.164062 34.042969 28.421875 34.042969 Z M 28.421875 36.410156 C 28.867188 36.410156 29.226562 36.773438 29.226562 37.21875 C 29.226562 37.667969 28.867188 38.035156 28.421875 38.035156 C 27.976562 38.035156 27.617188 37.667969 27.617188 37.21875 C 27.617188 36.773438 27.976562 36.410156 28.421875 36.410156 Z M 28.421875 36.410156 "/>
<path style=" stroke:none;fill-rule:evenodd;fill:rgb(40.779114%,70.588684%,90.589905%);fill-opacity:1;" d="M 27.636719 27.019531 L 18.308594 36.429688 C 17.851562 36.894531 17.851562 37.644531 18.308594 38.105469 C 18.769531 38.566406 19.511719 38.566406 19.96875 38.105469 L 29.300781 28.695312 C 29.757812 28.234375 29.757812 27.480469 29.300781 27.019531 C 28.839844 26.558594 28.097656 26.558594 27.636719 27.019531 Z M 27.636719 27.019531 "/>
<g clip-path="url(#clip2)" clip-rule="nonzero">
<path style=" stroke:none;fill-rule:evenodd;fill:rgb(40.779114%,70.588684%,90.589905%);fill-opacity:1;" d="M 15.707031 18.796875 C 15.410156 18.542969 15.011719 18.453125 14.636719 18.554688 C 14.261719 18.660156 13.964844 18.941406 13.835938 19.3125 C 12.03125 24.570312 10.617188 29.875 10.617188 33.414062 C 10.617188 40.753906 16.523438 46.714844 23.804688 46.714844 C 31.082031 46.714844 36.992188 40.753906 36.992188 33.414062 C 36.992188 29.382812 35.152344 23.0625 33 17.128906 C 32.851562 16.707031 32.472656 16.410156 32.03125 16.359375 C 30.097656 16.136719 27.9375 16.519531 26.105469 18.367188 C 22.960938 21.539062 18.519531 21.210938 15.707031 18.796875 Z M 15.546875 21.589844 C 19.1875 23.792969 24.132812 23.703125 27.765625 20.042969 C 28.78125 19.015625 29.949219 18.675781 31.058594 18.671875 C 32.992188 24.097656 34.644531 29.746094 34.644531 33.414062 C 34.644531 39.449219 29.789062 44.347656 23.804688 44.347656 C 17.820312 44.347656 12.964844 39.449219 12.964844 33.414062 C 12.964844 30.402344 14.082031 26.050781 15.546875 21.585938 Z M 15.546875 21.589844 "/>
</g>
</g>
</svg>
