<?xml version="1.0" encoding="UTF-8"?>
<svg xmlns="http://www.w3.org/2000/svg" xmlns:xlink="http://www.w3.org/1999/xlink" width="48pt" height="48pt" viewBox="0 0 48 48" version="1.2">
<defs>
<clipPath id="clip1">
  <path d="M 7.488281 0 L 40.34375 0 L 40.34375 47.011719 L 7.488281 47.011719 Z M 7.488281 0 "/>
</clipPath>
</defs>
<g id="surface1">
<path style=" stroke:none;fill-rule:nonzero;fill:rgb(40.779114%,70.588684%,90.589905%);fill-opacity:1;" d="M 18.175781 19.183594 C 19.351562 19.183594 20.308594 20.148438 20.308594 21.332031 C 20.308594 22.515625 19.351562 23.476562 18.175781 23.476562 C 17 23.476562 16.042969 22.515625 16.042969 21.332031 C 16.042969 20.148438 17 19.183594 18.175781 19.183594 Z M 18.175781 25.382812 C 20.398438 25.382812 22.210938 23.566406 22.210938 21.332031 C 22.210938 19.097656 20.398438 17.277344 18.175781 17.277344 C 15.953125 17.277344 14.140625 19.097656 14.140625 21.332031 C 14.140625 23.566406 15.953125 25.382812 18.175781 25.382812 "/>
<path style=" stroke:none;fill-rule:nonzero;fill:rgb(40.779114%,70.588684%,90.589905%);fill-opacity:1;" d="M 28.609375 34.921875 C 27.433594 34.921875 26.472656 33.960938 26.472656 32.777344 C 26.472656 31.59375 27.433594 30.628906 28.609375 30.628906 C 29.789062 30.628906 30.746094 31.59375 30.746094 32.777344 C 30.746094 33.960938 29.789062 34.921875 28.609375 34.921875 Z M 28.609375 28.722656 C 26.386719 28.722656 24.578125 30.542969 24.578125 32.777344 C 24.578125 35.011719 26.386719 36.828125 28.609375 36.828125 C 30.835938 36.828125 32.640625 35.011719 32.640625 32.777344 C 32.640625 30.542969 30.835938 28.722656 28.609375 28.722656 "/>
<g clip-path="url(#clip1)" clip-rule="nonzero">
<path style=" stroke:none;fill-rule:nonzero;fill:rgb(40.779114%,70.588684%,90.589905%);fill-opacity:1;" d="M 34.9375 40.378906 C 30.097656 46.050781 20.632812 46.589844 14.804688 42.179688 C 7.535156 36.675781 8.601562 25.078125 12.042969 17.75 C 14.789062 11.902344 19.066406 6.464844 23.921875 2.171875 C 27.988281 5.773438 31.566406 10.183594 34.277344 14.859375 C 38.464844 22.078125 40.941406 33.351562 34.9375 40.378906 Z M 38.785156 20.058594 C 36.125 12.46875 30.671875 5.421875 24.589844 0.234375 C 24.382812 0.0546875 24.148438 -0.0117188 23.925781 -0.00390625 C 23.699219 -0.0117188 23.464844 0.0507812 23.25 0.234375 C 18.011719 4.707031 13.347656 10.546875 10.410156 16.785156 C 6.78125 24.488281 5.660156 35.871094 12.210938 42.429688 C 17.707031 47.933594 27.292969 48.46875 33.609375 44.101562 C 41.085938 38.933594 41.554688 27.960938 38.785156 20.058594 "/>
</g>
<path style=" stroke:none;fill-rule:nonzero;fill:rgb(40.779114%,70.588684%,90.589905%);fill-opacity:1;" d="M 31.023438 17.894531 C 25.414062 23.53125 19.804688 29.167969 14.191406 34.808594 C 13.328125 35.675781 14.667969 37.027344 15.535156 36.15625 C 21.144531 30.519531 26.753906 24.882812 32.363281 19.246094 C 33.226562 18.375 31.886719 17.027344 31.023438 17.894531 "/>
</g>
</svg>
