<?xml version="1.0" encoding="UTF-8"?>
<svg xmlns="http://www.w3.org/2000/svg" xmlns:xlink="http://www.w3.org/1999/xlink" width="48pt" height="48pt" viewBox="0 0 48 48" version="1.2">
<defs>
<clipPath id="clip1">
  <path d="M 7.847656 0 L 42.800781 0 L 42.800781 47.019531 L 7.847656 47.019531 Z M 7.847656 0 "/>
</clipPath>
</defs>
<g id="surface1">
<path style=" stroke:none;fill-rule:nonzero;fill:rgb(40.779114%,70.588684%,90.589905%);fill-opacity:1;" d="M 16.148438 15.898438 C 16.304688 15.996094 16.488281 16.054688 16.675781 16.054688 C 17.003906 16.054688 17.316406 15.890625 17.488281 15.617188 C 17.777344 15.15625 17.652344 14.550781 17.214844 14.257812 C 17.210938 14.257812 17.210938 14.253906 17.207031 14.25 C 16.773438 13.96875 16.148438 14.09375 15.867188 14.535156 L 15.859375 14.546875 C 15.722656 14.761719 15.671875 15.027344 15.722656 15.273438 C 15.78125 15.535156 15.925781 15.753906 16.148438 15.898438 "/>
<g clip-path="url(#clip1)" clip-rule="nonzero">
<path style=" stroke:none;fill-rule:nonzero;fill:rgb(40.779114%,70.588684%,90.589905%);fill-opacity:1;" d="M 35.640625 26.75 C 34.269531 23.277344 32.050781 19.480469 30.023438 16.214844 C 28.878906 14.382812 27.738281 12.667969 26.726562 11.191406 C 28.53125 7.992188 30.78125 4.695312 32.3125 2.59375 C 35.261719 6.636719 40.859375 15.082031 40.859375 18.800781 C 40.859375 22.367188 38.703125 25.4375 35.640625 26.75 Z M 42.800781 18.800781 C 42.800781 13.230469 33.484375 0.882812 33.085938 0.363281 C 32.71875 -0.125 31.910156 -0.125 31.542969 0.363281 C 31.316406 0.664062 28.15625 4.855469 25.496094 9.425781 C 24.125 7.480469 23.195312 6.257812 23.179688 6.242188 C 22.820312 5.761719 22.003906 5.761719 21.636719 6.242188 L 21.625 6.269531 C 21.238281 6.78125 19.839844 8.65625 18.050781 11.261719 C 17.90625 11.476562 17.847656 11.734375 17.898438 11.988281 C 17.945312 12.253906 18.082031 12.480469 18.296875 12.625 C 18.296875 12.628906 18.300781 12.628906 18.300781 12.628906 C 18.726562 12.917969 19.351562 12.800781 19.644531 12.382812 C 20.789062 10.714844 21.769531 9.351562 22.410156 8.476562 C 22.917969 9.167969 23.625 10.144531 24.441406 11.320312 C 24.640625 11.605469 24.847656 11.90625 25.058594 12.210938 C 25.265625 12.511719 25.472656 12.816406 25.683594 13.128906 C 26.539062 14.394531 27.460938 15.796875 28.382812 17.269531 C 30.78125 21.0625 32.617188 24.515625 33.75 27.304688 C 33.878906 27.625 33.996094 27.9375 34.109375 28.238281 C 34.226562 28.558594 34.332031 28.871094 34.429688 29.171875 C 34.832031 30.4375 35.042969 31.507812 35.03125 32.332031 C 35.023438 39.339844 29.363281 45.066406 22.410156 45.078125 C 15.460938 45.066406 9.800781 39.339844 9.789062 32.332031 C 9.75 29.78125 11.859375 24.765625 15.429688 18.910156 C 15.703125 18.453125 15.558594 17.847656 15.109375 17.5625 C 15.105469 17.5625 15.105469 17.558594 15.101562 17.554688 C 14.664062 17.292969 14.042969 17.441406 13.777344 17.878906 C 13.769531 17.878906 13.769531 17.878906 13.769531 17.890625 C 11.03125 22.46875 7.886719 28.242188 7.847656 32.332031 C 7.847656 40.4375 14.382812 47.039062 22.410156 47.039062 C 30.441406 47.039062 36.972656 40.4375 36.972656 32.332031 C 36.960938 31.203125 36.714844 29.9375 36.296875 28.59375 C 40.109375 27.007812 42.800781 23.21875 42.800781 18.800781 "/>
</g>
<path style=" stroke:none;fill-rule:nonzero;fill:rgb(40.779114%,70.588684%,90.589905%);fill-opacity:1;" d="M 16.585938 32.332031 L 17.558594 32.332031 C 18.09375 32.332031 18.527344 32.773438 18.527344 33.3125 C 18.527344 33.851562 18.09375 34.292969 17.558594 34.292969 L 16.585938 34.292969 Z M 14.644531 31.351562 L 14.644531 37.234375 C 14.644531 37.777344 15.078125 38.214844 15.617188 38.214844 C 16.152344 38.214844 16.585938 37.777344 16.585938 37.234375 L 16.585938 36.253906 L 17.558594 36.253906 C 19.164062 36.253906 20.46875 34.933594 20.46875 33.3125 C 20.46875 31.6875 19.164062 30.371094 17.558594 30.371094 L 15.617188 30.371094 C 15.078125 30.371094 14.644531 30.808594 14.644531 31.351562 "/>
<path style=" stroke:none;fill-rule:nonzero;fill:rgb(40.779114%,70.588684%,90.589905%);fill-opacity:1;" d="M 23.382812 25.46875 C 22.847656 25.46875 22.410156 25.90625 22.410156 26.449219 L 22.410156 35.273438 C 22.410156 35.8125 22.847656 36.253906 23.382812 36.253906 C 23.917969 36.253906 24.355469 35.8125 24.355469 35.273438 L 24.355469 32.332031 L 28.234375 32.332031 L 28.234375 35.273438 C 28.234375 35.8125 28.671875 36.253906 29.207031 36.253906 C 29.746094 36.253906 30.179688 35.8125 30.179688 35.273438 L 30.179688 26.449219 C 30.179688 25.90625 29.746094 25.46875 29.207031 25.46875 C 28.695312 25.46875 28.277344 25.875 28.242188 26.382812 C 28.242188 26.40625 28.234375 26.425781 28.234375 26.449219 L 28.234375 30.371094 L 24.355469 30.371094 L 24.355469 26.449219 C 24.355469 25.90625 23.917969 25.46875 23.382812 25.46875 "/>
</g>
</svg>
