<?xml version="1.0" encoding="UTF-8"?>
<svg xmlns="http://www.w3.org/2000/svg" xmlns:xlink="http://www.w3.org/1999/xlink" width="48pt" height="48pt" viewBox="0 0 48 48" version="1.2">
<defs>
<clipPath id="clip1">
  <path d="M 15.078125 0 L 34.179688 0 L 34.179688 47.019531 L 15.078125 47.019531 Z M 15.078125 0 "/>
</clipPath>
<clipPath id="clip2">
  <path d="M 30 6 L 34.179688 6 L 34.179688 9 L 30 9 Z M 30 6 "/>
</clipPath>
<clipPath id="clip3">
  <path d="M 30 10 L 34.179688 10 L 34.179688 13 L 30 13 Z M 30 10 "/>
</clipPath>
<clipPath id="clip4">
  <path d="M 30 13 L 34.179688 13 L 34.179688 16 L 30 16 Z M 30 13 "/>
</clipPath>
<clipPath id="clip5">
  <path d="M 30 17 L 34.179688 17 L 34.179688 20 L 30 20 Z M 30 17 "/>
</clipPath>
<clipPath id="clip6">
  <path d="M 30 20 L 34.179688 20 L 34.179688 23 L 30 23 Z M 30 20 "/>
</clipPath>
<clipPath id="clip7">
  <path d="M 30 24 L 34.179688 24 L 34.179688 27 L 30 27 Z M 30 24 "/>
</clipPath>
</defs>
<g id="surface1">
<path style=" stroke:none;fill-rule:nonzero;fill:rgb(40.779114%,70.588684%,90.589905%);fill-opacity:1;" d="M 25.496094 31.417969 L 25.496094 16.542969 C 25.496094 16.0625 25.109375 15.671875 24.628906 15.671875 C 24.148438 15.671875 23.761719 16.0625 23.761719 16.542969 L 23.761719 31.417969 C 20.820312 31.839844 18.550781 34.378906 18.550781 37.441406 C 18.550781 40.800781 21.277344 43.539062 24.628906 43.539062 C 27.980469 43.539062 30.707031 40.800781 30.707031 37.441406 C 30.707031 34.378906 28.4375 31.839844 25.496094 31.417969 Z M 24.628906 41.796875 C 22.234375 41.796875 20.289062 39.84375 20.289062 37.441406 C 20.289062 35.042969 22.234375 33.089844 24.628906 33.089844 C 27.023438 33.089844 28.96875 35.042969 28.96875 37.441406 C 28.96875 39.84375 27.023438 41.796875 24.628906 41.796875 Z M 24.628906 41.796875 "/>
<g clip-path="url(#clip1)" clip-rule="nonzero">
<path style=" stroke:none;fill-rule:nonzero;fill:rgb(40.779114%,70.588684%,90.589905%);fill-opacity:1;" d="M 28.96875 28.914062 L 28.96875 4.355469 C 28.96875 1.953125 27.023438 0 24.628906 0 C 22.234375 0 20.289062 1.953125 20.289062 4.355469 L 20.289062 28.914062 C 17.105469 30.542969 15.078125 33.832031 15.078125 37.441406 C 15.078125 42.722656 19.363281 47.019531 24.628906 47.019531 C 29.894531 47.019531 34.179688 42.722656 34.179688 37.441406 C 34.179688 33.832031 32.152344 30.542969 28.96875 28.914062 Z M 24.628906 45.277344 C 20.320312 45.277344 16.816406 41.765625 16.816406 37.441406 C 16.816406 34.332031 18.65625 31.511719 21.503906 30.261719 C 21.820312 30.125 22.023438 29.808594 22.023438 29.464844 L 22.023438 4.355469 C 22.023438 2.914062 23.195312 1.742188 24.628906 1.742188 C 26.066406 1.742188 27.234375 2.914062 27.234375 4.355469 L 27.234375 29.464844 C 27.234375 29.808594 27.4375 30.125 27.753906 30.261719 C 30.601562 31.511719 32.441406 34.332031 32.441406 37.441406 C 32.441406 41.765625 28.9375 45.277344 24.628906 45.277344 Z M 24.628906 45.277344 "/>
</g>
<g clip-path="url(#clip2)" clip-rule="nonzero">
<path style=" stroke:none;fill-rule:nonzero;fill:rgb(40.779114%,70.588684%,90.589905%);fill-opacity:1;" d="M 31.574219 8.707031 L 33.3125 8.707031 C 33.789062 8.707031 34.179688 8.316406 34.179688 7.835938 C 34.179688 7.355469 33.789062 6.964844 33.3125 6.964844 L 31.574219 6.964844 C 31.09375 6.964844 30.707031 7.355469 30.707031 7.835938 C 30.707031 8.316406 31.09375 8.707031 31.574219 8.707031 Z M 31.574219 8.707031 "/>
</g>
<g clip-path="url(#clip3)" clip-rule="nonzero">
<path style=" stroke:none;fill-rule:nonzero;fill:rgb(40.779114%,70.588684%,90.589905%);fill-opacity:1;" d="M 33.3125 10.449219 L 31.574219 10.449219 C 31.09375 10.449219 30.707031 10.839844 30.707031 11.320312 C 30.707031 11.800781 31.09375 12.191406 31.574219 12.191406 L 33.3125 12.191406 C 33.789062 12.191406 34.179688 11.800781 34.179688 11.320312 C 34.179688 10.839844 33.789062 10.449219 33.3125 10.449219 Z M 33.3125 10.449219 "/>
</g>
<g clip-path="url(#clip4)" clip-rule="nonzero">
<path style=" stroke:none;fill-rule:nonzero;fill:rgb(40.779114%,70.588684%,90.589905%);fill-opacity:1;" d="M 33.3125 13.933594 L 31.574219 13.933594 C 31.09375 13.933594 30.707031 14.320312 30.707031 14.800781 C 30.707031 15.285156 31.09375 15.671875 31.574219 15.671875 L 33.3125 15.671875 C 33.789062 15.671875 34.179688 15.285156 34.179688 14.800781 C 34.179688 14.320312 33.789062 13.933594 33.3125 13.933594 Z M 33.3125 13.933594 "/>
</g>
<g clip-path="url(#clip5)" clip-rule="nonzero">
<path style=" stroke:none;fill-rule:nonzero;fill:rgb(40.779114%,70.588684%,90.589905%);fill-opacity:1;" d="M 33.3125 17.414062 L 31.574219 17.414062 C 31.09375 17.414062 30.707031 17.804688 30.707031 18.285156 C 30.707031 18.765625 31.09375 19.15625 31.574219 19.15625 L 33.3125 19.15625 C 33.789062 19.15625 34.179688 18.765625 34.179688 18.285156 C 34.179688 17.804688 33.789062 17.414062 33.3125 17.414062 Z M 33.3125 17.414062 "/>
</g>
<g clip-path="url(#clip6)" clip-rule="nonzero">
<path style=" stroke:none;fill-rule:nonzero;fill:rgb(40.779114%,70.588684%,90.589905%);fill-opacity:1;" d="M 33.3125 20.898438 L 31.574219 20.898438 C 31.09375 20.898438 30.707031 21.289062 30.707031 21.769531 C 30.707031 22.25 31.09375 22.640625 31.574219 22.640625 L 33.3125 22.640625 C 33.789062 22.640625 34.179688 22.25 34.179688 21.769531 C 34.179688 21.289062 33.789062 20.898438 33.3125 20.898438 Z M 33.3125 20.898438 "/>
</g>
<g clip-path="url(#clip7)" clip-rule="nonzero">
<path style=" stroke:none;fill-rule:nonzero;fill:rgb(40.779114%,70.588684%,90.589905%);fill-opacity:1;" d="M 33.3125 24.382812 L 31.574219 24.382812 C 31.09375 24.382812 30.707031 24.769531 30.707031 25.25 C 30.707031 25.734375 31.09375 26.121094 31.574219 26.121094 L 33.3125 26.121094 C 33.789062 26.121094 34.179688 25.734375 34.179688 25.25 C 34.179688 24.769531 33.789062 24.382812 33.3125 24.382812 Z M 33.3125 24.382812 "/>
</g>
</g>
</svg>
